<svg xmlns="http://www.w3.org/2000/svg" viewBox="0 0 1200 750" fill="none">
  <rect width="1200" height="750" fill="#DDEEDA" />
  <path d="M0 380H1200V750H0V380Z" fill="#84A47A" />
  <path d="M0 460C150 430 230 480 360 458C520 432 580 484 740 462C890 438 980 482 1200 452V750H0V460Z" fill="#6B8D66" />
  <rect x="90" y="500" width="1020" height="140" rx="24" fill="#7C6A52" />
  <g fill="#E8AFC3">
    <circle cx="180" cy="540" r="24" />
    <circle cx="250" cy="586" r="20" />
    <circle cx="328" cy="546" r="23" />
    <circle cx="404" cy="584" r="19" />
    <circle cx="486" cy="548" r="22" />
    <circle cx="570" cy="586" r="20" />
    <circle cx="648" cy="548" r="24" />
    <circle cx="728" cy="586" r="20" />
    <circle cx="808" cy="546" r="23" />
    <circle cx="884" cy="584" r="19" />
    <circle cx="964" cy="548" r="22" />
    <circle cx="1038" cy="586" r="20" />
  </g>
  <g fill="#DCAA66">
    <rect x="170" y="280" width="120" height="120" rx="12" />
    <rect x="300" y="280" width="120" height="120" rx="12" />
    <rect x="430" y="280" width="120" height="120" rx="12" />
    <rect x="560" y="280" width="120" height="120" rx="12" />
  </g>
  <text x="94" y="120" font-family="Trebuchet MS, sans-serif" font-size="46" fill="#3F4E3D">
    journal image placeholder - petal beds
  </text>
</svg>
