<svg xmlns="http://www.w3.org/2000/svg" viewBox="0 0 1200 750" fill="none">
  <rect width="1200" height="750" fill="#D6E7D5" />
  <path d="M0 350H1200V750H0V350Z" fill="#89A97E" />
  <path d="M0 460C180 420 280 488 420 456C560 426 710 502 880 452C1010 414 1070 448 1200 430V750H0V460Z" fill="#668663" />
  <path d="M140 430C140 368 190 318 252 318H942C1004 318 1054 368 1054 430V576C1054 638 1004 688 942 688H252C190 688 140 638 140 576V430Z" fill="#F3E4CD" />
  <path d="M178 466H1018V542H178V466Z" fill="#B68E61" />
  <path d="M420 350H774V654H420V350Z" fill="#EFE1CC" />
  <circle cx="508" cy="470" r="22" fill="#E7AFC2" />
  <circle cx="588" cy="470" r="22" fill="#E7AFC2" />
  <circle cx="668" cy="470" r="22" fill="#E7AFC2" />
  <circle cx="748" cy="470" r="22" fill="#E7AFC2" />
  <rect x="496" y="534" width="180" height="66" rx="18" fill="#C8A274" />
  <text x="86" y="120" font-family="Trebuchet MS, sans-serif" font-size="46" fill="#445643">
    journal image placeholder - demo map
  </text>
</svg>
